<svg width="22" height="31" viewBox="0 0 22 31" fill="none" xmlns="http://www.w3.org/2000/svg">
<path d="M11.3887 0.661328C10.9773 0.880737 10.9019 1.12072 10.9019 2.20405C10.9019 3.30795 10.9704 3.5205 11.375 3.74677C11.8206 4.00046 12.2389 3.92504 12.616 3.5205C12.7874 3.34223 12.7874 3.31481 12.7874 2.21776C12.7874 1.12072 12.7874 1.09329 12.616 0.915019C12.2526 0.524197 11.8069 0.435062 11.3887 0.661328Z" fill="#6965FD"/>
<path d="M5.02571 2.38916C4.74459 2.55372 4.59375 2.84855 4.59375 3.2188C4.59375 3.43136 4.68288 3.65762 4.98457 4.19243C5.62223 5.32376 5.96506 5.55688 6.62328 5.30319C7.02096 5.15235 7.19923 4.87809 7.19923 4.41184C7.19923 4.11701 7.13752 3.96617 6.76041 3.3148C6.48615 2.83484 6.24617 2.50573 6.10219 2.40288C5.81421 2.21089 5.33426 2.19718 5.02571 2.38916Z" fill="#6965FD"/>
<path d="M14.906 5.67345C14.4946 5.7763 14.0558 6.03685 13.6924 6.40024C13.281 6.81163 13.4867 6.44824 10.0928 12.9139C8.72144 15.5263 7.92609 16.9662 7.85067 16.9799C7.68611 17.0142 7.61754 16.9044 6.67134 14.9778C6.2051 14.0316 5.732 13.1128 5.61544 12.9345C4.98463 11.9472 3.70932 11.3507 2.69455 11.5632C1.09698 11.8992 0.0890703 13.3459 0.335905 14.9435C0.411327 15.4097 2.10489 20.7647 2.81797 22.7874C3.25679 24.0147 3.92187 25.3654 4.48411 26.1402C5.88284 28.0806 8.26206 29.7536 10.4013 30.3021C12.6502 30.8712 15.2351 30.3981 17.1687 29.0611C17.7995 28.6223 18.7594 27.6418 19.1502 27.0247C19.3148 26.771 20.021 25.4751 20.7135 24.1587L21.9751 21.7589V21.1761C21.9751 20.4698 21.7831 19.9967 21.2895 19.4688C20.9741 19.1328 20.3844 18.7763 20.1444 18.7763C20.0484 18.7763 20.021 18.7214 20.021 18.4815C20.0142 17.5352 19.3491 16.7742 18.3274 16.5342L17.8406 16.4176L17.7926 16.1091C17.6624 15.2177 16.963 14.5732 16.0031 14.4635L15.6534 14.4224L16.915 12.0226C17.6144 10.6993 18.2315 9.49254 18.2863 9.32798C18.3617 9.11543 18.3823 8.85488 18.3617 8.43663C18.3412 7.94296 18.2932 7.75784 18.1149 7.36016C17.6966 6.47566 17.1824 6.00942 16.3253 5.74887C15.8934 5.61174 15.3037 5.58431 14.906 5.67345Z" fill="#6965FD"/>
<path d="M0.500527 6.94875C0.185126 7.08588 0 7.42185 0 7.85382C0 8.32692 0.164557 8.51204 1.01477 8.99886C1.89926 9.49938 2.03639 9.54738 2.39979 9.45139C2.76318 9.3554 2.98259 9.13599 3.0923 8.77945C3.22257 8.34063 3.03744 7.92924 2.57806 7.64126C1.39188 6.88019 0.973628 6.74306 0.500527 6.94875Z" fill="#6965FD"/>
</svg>
