<svg width="24" height="32" viewBox="0 0 24 32" fill="none" xmlns="http://www.w3.org/2000/svg">
<path d="M10.7287 0.215363C9.3777 0.461636 8.01264 1.01751 6.86571 1.78448C6.535 2.0026 5.90876 2.53033 5.47954 2.95955C4.03708 4.39498 3.1505 6.04149 2.73535 8.02575C2.53833 8.96863 2.55241 10.6362 2.75646 11.4454C3.55861 14.6048 6.88682 19.7202 11.6645 25.1382C12.0445 25.5745 12.3893 25.9333 12.4174 25.9333C12.5019 25.9333 14.071 24.132 15.246 22.6825C18.9894 18.0807 21.3536 14.1967 22.0643 11.4736C22.2824 10.6362 22.3035 9.00381 22.0995 8.02575C21.6843 6.04149 20.7978 4.39498 19.3553 2.95955C17.8636 1.48191 16.1045 0.567181 14.078 0.215363C13.304 0.0816708 11.4675 0.0816708 10.7287 0.215363ZM13.0085 5.31674C14.9153 5.59116 16.4845 7.00547 16.9559 8.87012C17.0896 9.40488 17.0896 10.4322 16.9489 11.0162C16.3859 13.4297 13.9021 15.0058 11.4675 14.4992C9.89839 14.1685 8.51222 12.9301 7.97746 11.368C7.76637 10.7418 7.71008 9.53857 7.87191 8.9053C8.083 8.0539 8.50519 7.31507 9.13846 6.6818C9.75063 6.06963 10.2291 5.76707 10.9327 5.52783C11.6997 5.27452 12.2767 5.21119 13.0085 5.31674Z" fill="#6965FD"/>
<path d="M6.75271 22.1337C3.85372 22.8866 1.80613 24.1461 1.13064 25.5745C0.67327 26.5596 0.905471 27.5728 1.80613 28.5157C4.76845 31.5976 13.2965 32.639 19.2564 30.6477C21.5291 29.8878 23.1264 28.7831 23.6893 27.5728C24.1607 26.5807 23.9426 25.6026 23.0419 24.6457C22.0498 23.5761 20.1852 22.6544 17.9476 22.0985C17.5254 22 17.1806 21.9226 17.1736 21.9367C16.6459 22.6614 14.5842 25.1241 13.4373 26.4118C12.7407 27.1999 12.5648 27.3195 12.2622 27.2421C12.023 27.1858 9.39839 24.1813 8.05444 22.4292C7.84335 22.1548 7.63929 21.9296 7.59707 21.9296C7.56189 21.9296 7.18193 22.0211 6.75271 22.1337Z" fill="#6965FD"/>
</svg>
