<svg width="31" height="27" viewBox="0 0 31 27" fill="none" xmlns="http://www.w3.org/2000/svg">
<path d="M20.1454 1.84656C18.4803 2.52765 17.0564 3.1447 16.9858 3.21456C16.674 3.50562 16.6681 3.55801 16.6858 6.98092L16.7034 10.1477L18.0861 10.7182C18.8451 11.0325 19.504 11.2887 19.5393 11.2945C19.5805 11.2945 19.6511 11.2304 19.7041 11.1606C19.8571 10.9219 20.0336 10.887 21.0338 10.887H21.981L22.1811 11.0849L22.3811 11.2828V12.3831C22.3811 13.2854 22.3635 13.5066 22.287 13.6113C22.1752 13.7743 21.9046 13.9141 21.7045 13.9141H21.5574V20.1137V26.3134H25.9407H30.3241L30.3123 14.9153L30.2946 3.52308L30.1534 3.3368C29.9828 3.11559 29.924 3.08649 26.5173 1.69521C24.0933 0.705589 23.7638 0.583344 23.4873 0.589165C23.2225 0.594986 22.7224 0.781267 20.1454 1.84656ZM21.9222 5.12393C22.0399 5.15886 22.1929 5.252 22.2635 5.33932C22.3753 5.47903 22.3811 5.56635 22.3811 6.62V7.75515L22.2105 7.92396L22.0399 8.09278H20.9985H19.9571L19.7923 7.92978C19.5746 7.7144 19.5393 7.45826 19.5688 6.38715C19.5864 5.43246 19.6511 5.27529 20.0336 5.1414C20.2807 5.05408 21.628 5.04244 21.9222 5.12393ZM26.988 5.12976C27.394 5.24036 27.4411 5.39171 27.4411 6.60836C27.4411 7.50483 27.4234 7.67947 27.341 7.80172C27.1469 8.08114 27.1116 8.08696 26.0584 8.09278C24.6228 8.09278 24.6169 8.09278 24.6169 6.59089C24.6169 5.66531 24.6228 5.59546 24.7522 5.40918C24.8287 5.29857 24.9758 5.18215 25.0876 5.1414C25.3465 5.05408 26.688 5.04244 26.988 5.12976ZM27.241 11.0849L27.4411 11.2828V12.3307C27.4411 12.9128 27.4175 13.4483 27.3822 13.5298C27.3528 13.6113 27.241 13.7336 27.1351 13.7976C26.9645 13.9024 26.8351 13.9141 26.0702 13.9141C24.664 13.9141 24.6169 13.8617 24.6169 12.3889C24.6169 11.603 24.6346 11.4051 24.7228 11.2363C24.8817 10.9219 25.0052 10.887 26.0819 10.887H27.041L27.241 11.0849Z" fill="#6965FD"/>
<path d="M9.4671 5.79338C7.47843 6.61418 6.34877 7.10899 6.23698 7.20795C5.94868 7.47573 5.9075 7.65619 5.9075 8.6458C5.9075 9.62378 5.86631 9.81588 5.59566 10.0662C5.51329 10.136 4.36598 10.6425 3.04805 11.1839C1.73011 11.7253 0.582803 12.2259 0.506315 12.3016C0.182715 12.5984 0.200366 12.2026 0.200366 19.5316V26.3134H3.11277H6.01929L6.03694 19.6887C6.05459 14.5835 6.07224 13.0234 6.13108 12.8546C6.2311 12.5577 6.54293 12.1211 6.79004 11.9232C6.9136 11.83 8.32567 11.213 10.1437 10.4679C13.1561 9.22793 13.3091 9.17554 13.7386 9.15225C14.1681 9.12897 14.227 9.14061 14.8565 9.40257C15.2272 9.55392 15.5743 9.68781 15.6332 9.70527C15.7273 9.73438 15.7332 9.61213 15.7332 7.70276V5.67113L14.3976 5.12976C13.5798 4.79212 12.9502 4.57091 12.7914 4.55927C12.556 4.54181 12.1795 4.68152 9.4671 5.79338Z" fill="#6965FD"/>
<path d="M13.4682 10.0953C12.9505 10.2699 7.51398 12.5228 7.37865 12.6217C7.29628 12.6799 7.17272 12.8429 7.10212 12.9826L6.9668 13.2388V19.7761V26.3134H13.8212H20.6757L20.6639 19.7179C20.6463 12.5461 20.6639 12.971 20.3285 12.6683C20.1697 12.5286 14.1919 10.0778 13.9154 10.0429C13.7977 10.0313 13.5977 10.0545 13.4682 10.0953ZM12.3209 14.6417C12.6563 14.8105 12.6739 14.8862 12.6739 16.0505C12.6739 16.6908 12.6504 17.1681 12.6092 17.2496C12.4798 17.5349 12.2915 17.5815 11.2913 17.5815C9.88508 17.5815 9.9145 17.6106 9.90862 16.0912C9.90862 15.0434 9.9145 14.9677 10.0322 14.8222C10.1028 14.7348 10.2146 14.6359 10.2852 14.6126C10.3499 14.5835 10.8029 14.5602 11.2795 14.5602C11.9444 14.5544 12.1915 14.5777 12.3209 14.6417ZM17.3808 14.6417C17.7162 14.8105 17.7339 14.8862 17.7339 16.0854V17.1856L17.5338 17.3835L17.3338 17.5815H16.3747C14.9156 17.5815 14.8862 17.5523 14.9215 15.9399C14.9391 14.9968 14.945 14.9677 15.0862 14.8163C15.1686 14.729 15.2863 14.6359 15.351 14.6126C15.4157 14.5835 15.8629 14.5602 16.3394 14.5602C17.0043 14.5544 17.2514 14.5777 17.3808 14.6417ZM12.5033 20.5445L12.6739 20.7133V21.8484C12.6739 22.9021 12.668 22.9894 12.5563 23.1291C12.3856 23.3445 12.1091 23.4027 11.2913 23.4027C10.4734 23.4027 10.1969 23.3445 10.0263 23.1291C9.9145 22.9894 9.90862 22.9021 9.90862 21.8484V20.7133L10.0792 20.5445L10.2499 20.3757H11.2913H12.3327L12.5033 20.5445ZM17.475 20.4804C17.7103 20.6667 17.7339 20.7948 17.7339 21.8717C17.7339 23.3853 17.6868 23.4318 16.2041 23.3911C14.9685 23.362 14.9097 23.2921 14.9097 21.8601C14.9097 20.3931 14.9274 20.3757 16.3512 20.3757C17.2102 20.3757 17.3691 20.3931 17.475 20.4804Z" fill="#6965FD"/>
</svg>
