<svg width="72" height="77" viewBox="0 0 72 77" fill="none" xmlns="http://www.w3.org/2000/svg">
<g filter="url(#filter0_d_2_271)">
<path d="M36 38.25C26.49 38.25 18.75 30.51 18.75 21C18.75 11.49 26.49 3.75 36 3.75C45.51 3.75 53.25 11.49 53.25 21C53.25 30.51 45.51 38.25 36 38.25ZM36 8.25C28.98 8.25 23.25 13.98 23.25 21C23.25 28.02 28.98 33.75 36 33.75C43.02 33.75 48.75 28.02 48.75 21C48.75 13.98 43.02 8.25 36 8.25Z" fill="#18457C"/>
<path d="M61.7704 68.25C60.5404 68.25 59.5204 67.23 59.5204 66C59.5204 55.65 48.9605 47.25 36.0005 47.25C23.0405 47.25 12.4805 55.65 12.4805 66C12.4805 67.23 11.4605 68.25 10.2305 68.25C9.00047 68.25 7.98047 67.23 7.98047 66C7.98047 53.19 20.5505 42.75 36.0005 42.75C51.4505 42.75 64.0204 53.19 64.0204 66C64.0204 67.23 63.0004 68.25 61.7704 68.25Z" fill="#18457C"/>
</g>
<defs>
<filter id="filter0_d_2_271" x="-4" y="0" width="80" height="80" filterUnits="userSpaceOnUse" color-interpolation-filters="sRGB">
<feFlood flood-opacity="0" result="BackgroundImageFix"/>
<feColorMatrix in="SourceAlpha" type="matrix" values="0 0 0 0 0 0 0 0 0 0 0 0 0 0 0 0 0 0 127 0" result="hardAlpha"/>
<feOffset dy="4"/>
<feGaussianBlur stdDeviation="2"/>
<feComposite in2="hardAlpha" operator="out"/>
<feColorMatrix type="matrix" values="0 0 0 0 0 0 0 0 0 0 0 0 0 0 0 0 0 0 0.25 0"/>
<feBlend mode="normal" in2="BackgroundImageFix" result="effect1_dropShadow_2_271"/>
<feBlend mode="normal" in="SourceGraphic" in2="effect1_dropShadow_2_271" result="shape"/>
</filter>
</defs>
</svg>
