<svg width="30" height="31" viewBox="0 0 30 31" fill="none" xmlns="http://www.w3.org/2000/svg">
<path d="M12.591 0.858657C12.2276 0.911411 11.0611 1.18691 10.5453 1.34517C5.76221 2.81645 2.0166 6.56206 0.545324 11.3452C0.287411 12.1658 0.070529 13.215 0.035359 13.7778C0.00605066 14.2291 0.017774 14.3112 0.123284 14.487C0.369474 14.8856 0.357751 14.8856 2.65552 14.8856C4.93571 14.8856 4.97674 14.8798 5.21121 14.5163C5.28155 14.4167 5.3812 14.106 5.43981 13.8305C5.73876 12.2772 6.55353 10.6359 7.63794 9.38738C9.00957 7.81059 11.0201 6.6324 13.0307 6.23967C13.5934 6.12829 13.8337 6.0052 13.9861 5.75315C14.074 5.59488 14.0858 5.37214 14.0858 3.47296C14.0858 1.51516 14.0799 1.36276 13.9744 1.20449C13.7341 0.846933 13.3648 0.753146 12.591 0.858657Z" fill="#6965FD"/>
<path d="M16.1314 1.04038L15.8735 1.28071V3.4847V5.68868L16.108 5.91143C16.3132 6.099 16.4128 6.14003 16.8583 6.22796C17.9251 6.43898 19.1502 6.91963 20.0939 7.49994C21.9579 8.64296 23.4996 10.5832 24.1912 12.6641C24.584 13.8305 24.6602 14.3522 24.6602 15.7649C24.6602 16.8434 24.6426 17.1131 24.5312 17.623C24.2557 18.8892 23.7868 20.0205 23.1068 21.0756C22.7903 21.5621 22.7375 21.6793 22.7375 21.9138C22.7375 22.0603 22.7844 22.2596 22.8313 22.3593C22.8841 22.453 23.5582 23.1623 24.3261 23.9243C25.8325 25.419 25.8677 25.4484 26.3835 25.3487C26.6766 25.296 26.9521 24.997 27.5617 24.0884C28.4703 22.711 29.2264 20.9935 29.6191 19.3874C29.9533 18.0275 30.0001 17.5761 30.0001 15.7942C30.0001 14.0005 29.9533 13.5375 29.6074 12.1307C28.5347 7.69337 25.346 3.87743 21.1432 1.99584C19.795 1.39208 18.0482 0.911427 16.9521 0.835224L16.3835 0.800055L16.1314 1.04038Z" fill="#6965FD"/>
<path d="M14.197 9.72148C13.945 9.77423 13.7516 9.90319 13.6109 10.1201C13.5054 10.2783 13.4995 10.5245 13.4995 15.5714V20.8645H14.9942H16.4948L16.4772 15.6007L16.4597 10.3428L16.3307 10.1377C16.108 9.78009 15.9087 9.70389 15.1115 9.68631C14.7246 9.68045 14.3143 9.69803 14.197 9.72148Z" fill="#6965FD"/>
<path d="M18.189 16.4331V20.8645H19.3672C20.686 20.8645 20.7974 20.8352 21.0319 20.4425C21.1432 20.2549 21.1491 20.1435 21.1491 16.4683C21.1491 12.793 21.1432 12.6816 21.0319 12.494C20.9674 12.3885 20.8209 12.242 20.7095 12.1717C20.5219 12.0544 20.4164 12.0427 19.3496 12.0251L18.189 12.0017V16.4331Z" fill="#6965FD"/>
<path d="M9.51349 14.4108C9.23213 14.4694 9.02111 14.616 8.90388 14.8446C8.81009 15.0146 8.80423 15.2783 8.82181 17.7109L8.8394 20.3956L9.06214 20.6124L9.27902 20.8352L10.5393 20.8528L11.7995 20.8704L11.7878 17.6289L11.7702 14.3874L10.7444 14.3815C10.1817 14.3756 9.62486 14.3874 9.51349 14.4108Z" fill="#6965FD"/>
<path d="M0.509965 16.6969C0.445487 16.7262 0.304807 16.8493 0.199297 16.9724L0 17.1951L0.03517 17.752C0.0820633 18.4261 0.339977 19.5925 0.650645 20.548C1.9578 24.5222 5.01758 27.8809 8.87456 29.575C10.0352 30.0849 11.3658 30.4718 12.7081 30.6945C13.2298 30.7766 13.6753 30.8 15.0234 30.8C16.8171 30.7942 17.3388 30.7414 18.7046 30.3897C20.2286 30.0087 21.9461 29.2467 23.2767 28.3675C24.1735 27.7754 24.4959 27.4765 24.5487 27.1775C24.6483 26.6676 24.619 26.6324 23.1243 25.126C22.3623 24.3581 21.6589 23.684 21.5592 23.6312C21.4654 23.5843 21.2603 23.5374 21.1137 23.5374C20.8792 23.5374 20.762 23.5902 20.2755 23.9067C19.2204 24.5867 18.0832 25.0556 16.823 25.3311C16.313 25.4425 16.0375 25.4601 14.9648 25.4601C13.8687 25.4601 13.6225 25.4425 13.0891 25.3311C11.2134 24.9208 9.61313 24.0884 8.30012 22.834C6.79367 21.3979 5.82649 19.657 5.43376 17.6699C5.34584 17.2127 5.29894 17.1131 5.11137 16.9079L4.88863 16.6734L2.76084 16.6617C1.58851 16.6559 0.580305 16.6734 0.509965 16.6969Z" fill="#6965FD"/>
</svg>
