<svg width="36" height="18" viewBox="0 0 36 18" fill="none" xmlns="http://www.w3.org/2000/svg">
<path d="M26.5082 1.03475C26.3918 1.15842 26.3845 1.82041 26.3845 9.10953V17.0534H25.3661H24.3477V12.194C24.3477 7.5746 24.3404 7.31999 24.2167 7.21087C24.0931 7.10175 23.7948 7.0872 21.4669 7.0872C19.3209 7.0872 18.819 7.10902 18.7026 7.18904C18.5716 7.29089 18.5644 7.43638 18.5426 12.1721L18.528 17.0534H17.5459H16.5639V10.4772C16.5639 4.59202 16.5493 3.88639 16.4475 3.78454C16.3529 3.6827 15.9965 3.66815 13.654 3.66815H10.9697L10.8606 3.82819C10.7588 3.97368 10.7442 4.73024 10.7442 10.5208V17.0534H9.76214H8.78007V13.1978C8.78007 9.43689 8.7728 9.33504 8.63458 9.19683C8.49636 9.05861 8.39452 9.05134 5.90662 9.05134H3.31687L3.14228 9.2332L2.96041 9.40779V13.2342V17.0534H1.62917C0.196075 17.0534 0.0942305 17.0752 0.0142101 17.4316C-0.0221627 17.5844 0.00693556 17.6717 0.152427 17.8099L0.334291 17.9991H17.5605C36.6562 17.9991 35.114 18.0427 35.114 17.5335C35.114 17.0825 35.0122 17.0534 33.4918 17.0534H32.1315V9.10226C32.1315 1.48577 32.1242 1.1366 32.0005 1.02748C31.8768 0.91836 31.5786 0.903811 29.2435 0.903811C26.7992 0.903811 26.6173 0.911085 26.5082 1.03475Z" fill="#6965FD"/>
</svg>
