<svg width="33" height="32" viewBox="0 0 33 32" fill="none" xmlns="http://www.w3.org/2000/svg">
<path d="M15.2218 0.459054C14.7723 0.578442 14.4071 0.789126 14.2596 1.00683C14.2034 1.09813 14.1332 1.39309 14.0981 1.66698C14.063 1.94087 13.9577 2.33415 13.8593 2.54483C12.6022 5.29076 6.8365 10.5157 1.36572 13.8586C0.684505 14.273 0.466797 14.5258 0.466797 14.891C0.466797 15.1087 0.515957 15.221 0.705573 15.4317C0.930304 15.6775 0.972441 15.6916 1.3587 15.6916C1.87136 15.6916 2.56662 15.4177 4.54004 14.4275C9.10488 12.1591 13.3256 9.35698 15.7063 7.0254L16.4718 6.27396L17.0196 6.82876C19.3442 9.18141 24.0003 12.2785 28.6635 14.5679C30.1523 15.2983 31.2408 15.7267 31.599 15.7267C31.922 15.7267 32.2872 15.4668 32.4066 15.1508C32.6173 14.603 32.4277 14.3713 31.1074 13.5637C30.5315 13.2125 29.6186 12.6085 29.0778 12.2223L28.0806 11.52L28.0384 11.1829C28.0103 11.0003 27.9963 10.0522 28.0103 9.09011C28.0314 6.7796 27.9612 6.51273 27.1676 6.12648C26.8164 5.95091 26.69 5.92984 26.1001 5.92984C25.3487 5.92984 24.829 6.05625 24.3655 6.35823C23.9862 6.60403 23.8458 6.92006 23.8388 7.55913L23.8247 8.06478L23.291 7.5802C22.4553 6.82876 21.0156 5.31885 20.4257 4.56741C19.3723 3.24712 18.8034 2.17965 18.7964 1.5195C18.7964 1.365 18.7402 1.15431 18.677 1.04897C18.5295 0.796149 18.0379 0.529282 17.5463 0.42394C17.0266 0.318597 15.6782 0.332643 15.2218 0.459054Z" fill="#6965FD"/>
<path d="M15.7976 10.6773C14.3439 10.9231 13.143 11.9695 12.6374 13.4443C12.4688 13.9359 12.4477 14.1115 12.4548 14.8138C12.4618 15.7689 12.6093 16.4009 13.0306 17.3139C13.754 18.8519 14.8636 19.8562 16.0785 20.0809C18.1081 20.4601 20.3484 17.9249 20.524 15.0596C20.6083 13.7955 20.2009 12.7069 19.3301 11.8291C18.382 10.874 17.1109 10.4596 15.7976 10.6773Z" fill="#6965FD"/>
<path d="M9.19559 13.1282C7.61545 13.6479 6.61821 15.2912 6.85699 16.9978C6.94828 17.6439 7.22217 18.4515 7.5382 19.0274C7.85423 19.5962 8.7391 20.4881 9.20963 20.7129C9.71528 20.9516 10.544 20.9868 11.0707 20.7901C11.794 20.5162 12.5244 19.8139 12.9949 18.9431L13.1986 18.5569L12.9528 18.1425C12.3348 17.1172 11.9696 15.8812 11.9696 14.8207C11.9696 14.4485 12.0047 14.0061 12.0398 13.8375C12.1311 13.4653 12.096 13.4302 11.4921 13.1914C10.9302 12.9667 9.79253 12.9386 9.19559 13.1282Z" fill="#6965FD"/>
<path d="M21.7741 13.0861C21.6196 13.1353 21.3457 13.2477 21.1771 13.3319L20.8611 13.4864L20.9664 14.0974C21.0858 14.8418 21.0086 15.6776 20.7206 16.5835C20.531 17.1734 20.1588 17.9881 19.906 18.3392C19.7726 18.5288 19.7726 18.5288 19.9622 18.901C20.4116 19.7929 21.2333 20.5795 21.9637 20.8183C22.4623 20.9868 23.284 20.9377 23.7334 20.7199C25.2574 19.9755 26.4021 17.6439 26.1001 15.8742C25.9105 14.7505 25.1731 13.7744 24.1548 13.2828C23.6351 13.037 23.5649 13.0229 22.8345 13.0089C22.3359 12.9948 21.9567 13.0229 21.7741 13.0861Z" fill="#6965FD"/>
<path d="M13.7403 19.7367C13.333 20.4039 12.5113 20.9727 11.5211 21.2677C10.4958 21.5697 9.89183 22.3492 9.50558 23.8591C9.37214 24.3928 9.35107 24.6527 9.35107 25.98C9.35107 27.3073 9.37214 27.5672 9.50558 28.1009C9.75138 29.07 10.0955 29.66 10.5309 29.8847C10.868 30.0603 12.5184 30.1305 16.4441 30.1305C20.7772 30.1305 22.1186 30.0673 22.4838 29.8426C23.1369 29.4423 23.5583 28.1571 23.6215 26.3663C23.6987 24.3718 23.2914 22.7776 22.4838 21.9138C22.1607 21.5697 21.8798 21.4152 20.9739 21.1062C20.2365 20.8463 19.478 20.2423 19.1058 19.6173C19.0356 19.4909 19.0215 19.4909 18.86 19.6103C17.8768 20.3266 17.2728 20.5724 16.4863 20.5724C15.6927 20.5724 15.0185 20.3196 14.3443 19.7648C14.1266 19.5892 13.944 19.4488 13.937 19.4488C13.9229 19.4488 13.8387 19.5822 13.7403 19.7367Z" fill="#6965FD"/>
<path d="M7.79839 20.7199C7.53152 21.1062 6.94161 21.5205 6.37978 21.7031C5.45277 22.0051 5.07353 22.3141 4.72942 23.0375C3.85858 24.8774 4.14652 28.3959 5.22101 29.0209C5.48086 29.1684 6.80817 29.2737 8.4164 29.2808H9.38555L9.2451 28.9296C9.05548 28.4521 8.84479 27.3425 8.78861 26.5419C8.66922 24.751 9.18189 22.6091 9.94738 21.7453C10.2072 21.4433 10.2072 21.4152 9.96142 21.4152C9.53303 21.4152 8.85182 21.1062 8.25488 20.6357L8.00205 20.432L7.79839 20.7199Z" fill="#6965FD"/>
<path d="M24.8078 20.5654C24.7867 20.6005 24.5901 20.741 24.3794 20.8885C23.951 21.1694 23.3119 21.4152 22.9959 21.4152C22.7501 21.4152 22.7501 21.4363 22.9959 21.7593C23.7473 22.7214 24.1336 24.1471 24.1336 25.973C24.1336 27.216 23.944 28.3537 23.6069 29.1544C23.5577 29.2737 23.6279 29.2808 24.5268 29.2808C26.2264 29.2737 27.4764 29.1684 27.7433 29.0069C28.7616 28.3748 29.0425 24.8985 28.2209 23.0866C27.954 22.5037 27.5045 22.0402 27.041 21.8787C26.0227 21.5135 25.7839 21.3871 25.3485 20.9447C24.878 20.4741 24.8639 20.4671 24.8078 20.5654Z" fill="#6965FD"/>
<path d="M1.96238 30.9452C1.85001 30.9873 1.84299 31.3314 1.95536 31.4438C2.07474 31.5632 30.8824 31.5632 31.0018 31.4438C31.1071 31.3384 31.1071 31.0856 31.0018 30.9803C30.9386 30.9171 27.6238 30.896 16.4786 30.903C8.54277 30.903 2.00452 30.9241 1.96238 30.9452Z" fill="#6965FD"/>
</svg>
