<svg width="31" height="31" viewBox="0 0 31 31" fill="none" xmlns="http://www.w3.org/2000/svg">
<path d="M13.1956 0.576855C11.9824 0.758837 10.3176 1.2239 10.0548 1.4598C9.87278 1.63505 9.893 2.05967 10.1019 2.26187C10.3041 2.47082 10.3783 2.47082 11.0118 2.26861C11.7196 2.03945 13.0002 1.76985 13.8696 1.66201C14.7122 1.56091 14.8537 1.46654 14.8537 1.01496C14.8537 0.812757 14.8133 0.725137 14.6785 0.617295C14.4695 0.448793 14.1325 0.442053 13.1956 0.576855Z" fill="#6965FD"/>
<path d="M16.1071 0.617419C15.8712 0.806141 15.8577 1.21729 16.0869 1.44645C16.2149 1.57451 16.343 1.60821 16.8215 1.64865C17.5562 1.70931 18.7492 1.95869 19.5782 2.22156C20.3601 2.47094 20.4747 2.47768 20.6836 2.262C20.9195 2.02609 20.9195 1.61495 20.6769 1.42623C20.3668 1.18359 18.7829 0.752221 17.5427 0.576978C16.5789 0.442177 16.3228 0.448917 16.1071 0.617419Z" fill="#6965FD"/>
<path d="M8.01211 2.3361C6.81912 2.96967 4.87797 4.49967 4.78361 4.89059C4.73643 5.08605 4.83753 5.38936 4.99929 5.50394C5.24194 5.69266 5.52502 5.61852 5.96313 5.24107C6.80564 4.52663 7.01458 4.3716 7.574 3.98742C7.89079 3.77174 8.32215 3.49539 8.53783 3.37407C8.96246 3.13817 9.05682 3.01685 9.05682 2.70007C9.05682 2.43046 8.79396 2.16086 8.53783 2.16086C8.42999 2.16086 8.19409 2.24174 8.01211 2.3361Z" fill="#6965FD"/>
<path d="M21.897 2.3293C21.7082 2.51128 21.6678 2.8685 21.8161 3.05723C21.8565 3.11789 22.1868 3.34031 22.5373 3.54925C23.3056 4.01432 23.9257 4.4659 24.6806 5.11295C25.3344 5.67912 25.5231 5.7263 25.8534 5.39603C26.1567 5.09273 26.0893 4.86357 25.5299 4.3311C24.5862 3.42119 22.6855 2.1608 22.2744 2.1608C22.1329 2.1608 21.9981 2.22146 21.897 2.3293Z" fill="#6965FD"/>
<path d="M14.1798 3.17868C12.67 3.3337 11.2546 3.74484 9.89985 4.41885C6.38153 6.16453 3.98207 9.29193 3.18674 13.1877C3.01149 14.0572 2.94409 15.7691 3.05193 16.7195C3.57766 21.296 5.97713 24.8211 9.81223 26.6611C12.8048 28.0967 16.5119 28.3124 19.6325 27.2205C20.2998 26.9914 21.6074 26.378 22.0994 26.068C24.209 24.7402 25.8873 22.7451 26.7905 20.4939C28.2126 16.9352 28.1318 13.3158 26.5478 10.0738C24.2967 5.45008 19.2888 2.65969 14.1798 3.17868ZM16.7073 10.9298C18.0688 11.3477 19.1135 12.2239 19.7067 13.4506C20.2054 14.4683 20.32 15.5535 20.0504 16.6858C19.7134 18.081 18.817 19.2268 17.5835 19.8199C16.8017 20.1974 16.2962 20.312 15.4267 20.3187C14.5303 20.3187 13.9776 20.1906 13.1688 19.7997C12.4206 19.4357 11.5647 18.6067 11.2007 17.899C10.7558 17.043 10.6413 16.5375 10.6413 15.5063C10.6413 14.7244 10.6615 14.529 10.803 14.1246C11.3962 12.3587 12.825 11.1185 14.6381 10.7882C15.1436 10.6939 16.1749 10.7613 16.7073 10.9298Z" fill="#6965FD"/>
<path d="M14.3814 11.9071C13.0469 12.2575 12.0628 13.2551 11.7191 14.5964C11.591 15.1019 11.591 15.9511 11.7191 16.5038C12.1639 18.3775 13.977 19.5705 15.9451 19.2807C17.893 19.0044 19.1669 17.535 19.1736 15.5669C19.1804 13.7875 18.048 12.2912 16.3967 11.9003C15.8575 11.779 14.8667 11.779 14.3814 11.9071Z" fill="#6965FD"/>
<path d="M3.45622 6.28572C2.78221 7.00017 1.37354 9.55466 1.37354 10.0534C1.37354 10.4578 1.79142 10.7072 2.2093 10.5454C2.26997 10.5252 2.52609 10.0736 2.78221 9.54792C3.03833 9.02893 3.47644 8.2673 3.74604 7.86964C4.46049 6.81145 4.50093 6.73057 4.44701 6.52162C4.33243 6.04308 3.79322 5.91502 3.45622 6.28572Z" fill="#6965FD"/>
<path d="M26.5542 6.21832C26.1903 6.54858 26.224 6.66316 27.0463 7.86964C27.3159 8.2673 27.7472 9.02893 28.0034 9.54792C28.2595 10.0736 28.5156 10.5252 28.5763 10.5454C28.9942 10.7072 29.412 10.4578 29.412 10.0534C29.412 9.51422 28.0505 7.04061 27.3496 6.29246C27.0935 6.02286 26.8036 5.9959 26.5542 6.21832Z" fill="#6965FD"/>
<path d="M0.874794 11.6846C0.780433 11.7789 0.679332 12.0014 0.638891 12.2103C0.382768 13.3831 0.335588 13.8347 0.335588 15.0546C0.328847 16.315 0.328847 16.3285 0.490609 16.4565C0.726512 16.6453 1.0096 16.6183 1.2455 16.3891L1.44096 16.1937V15.3242C1.44096 14.421 1.55554 13.3628 1.73752 12.5877C1.87907 11.9811 1.87907 11.9542 1.6499 11.725C1.40052 11.4756 1.09722 11.4621 0.874794 11.6846Z" fill="#6965FD"/>
<path d="M29.2231 11.6374C28.9737 11.8126 28.9265 12.0216 29.0411 12.5271C29.2433 13.4707 29.2972 13.8886 29.3377 15.0546L29.3781 16.2611L29.5736 16.4296C29.7353 16.5644 29.8162 16.5913 30.0117 16.5576C30.1465 16.5374 30.3083 16.4498 30.3824 16.3689C30.6453 16.0454 30.4094 12.736 30.0589 11.9002C29.9038 11.5363 29.5331 11.4217 29.2231 11.6374Z" fill="#6965FD"/>
<path d="M0.665863 17.7641C0.44344 17.9798 0.450181 18.1416 0.726524 19.2267C1.06353 20.5545 1.63643 22.0441 1.91952 22.3069C2.08802 22.4619 2.31718 22.4889 2.5396 22.3676C2.92379 22.1654 2.94401 21.9093 2.62049 21.2016C2.29022 20.4736 1.87908 19.2335 1.73754 18.5055C1.59599 17.7978 1.44771 17.5956 1.07027 17.5956C0.901766 17.5956 0.773704 17.6495 0.665863 17.7641Z" fill="#6965FD"/>
<path d="M29.3177 17.7236C29.257 17.791 29.1289 18.1819 29.0346 18.5796C28.8324 19.476 28.6099 20.177 28.2258 21.0802C28.064 21.4644 27.9292 21.8148 27.9292 21.8688C27.9292 22.3136 28.4886 22.6034 28.8526 22.3473C29.1896 22.1114 30.1332 19.4086 30.2613 18.31C30.295 18.0202 30.2815 17.9393 30.1534 17.7775C30.0388 17.6293 29.9512 17.5956 29.7221 17.5956C29.5266 17.5956 29.3985 17.636 29.3177 17.7236Z" fill="#6965FD"/>
<path d="M2.99764 23.3045C2.91676 23.3719 2.83587 23.5337 2.81565 23.6618C2.77521 23.9246 2.94372 24.2212 3.65816 25.1109C4.19063 25.7714 5.49821 27.0588 5.74759 27.1666C6.14525 27.3284 6.56314 27.079 6.56314 26.6678C6.56314 26.4656 6.46204 26.3376 5.62627 25.5018C5.11402 24.9896 4.48045 24.2819 4.21759 23.9246C3.95473 23.5674 3.69186 23.2574 3.6312 23.2304C3.429 23.1563 3.13918 23.19 2.99764 23.3045Z" fill="#6965FD"/>
<path d="M27.0664 23.3045C26.999 23.3719 26.7563 23.6685 26.5406 23.965C26.325 24.2616 25.7184 24.9424 25.1859 25.4748C24.1884 26.4724 24.1344 26.56 24.2962 26.9239C24.3906 27.1261 24.7006 27.2677 24.9298 27.207C25.2803 27.1194 26.5137 25.9062 27.3697 24.8076C28.0437 23.9381 28.1313 23.6617 27.828 23.3584C27.6325 23.1562 27.2686 23.136 27.0664 23.3045Z" fill="#6965FD"/>
<path d="M7.33842 27.5373C7.08904 27.7799 7.14296 28.245 7.44626 28.4337C8.63925 29.1819 10.7556 30.0648 11.3488 30.0648C11.8206 30.0648 12.0565 29.5121 11.7397 29.1684C11.6386 29.0605 11.3151 28.9123 10.85 28.7572C10.0277 28.4742 9.11106 28.063 8.40335 27.6519C7.83718 27.3216 7.57432 27.2946 7.33842 27.5373Z" fill="#6965FD"/>
<path d="M22.436 27.6182C21.7822 28.0091 20.7375 28.4876 19.9422 28.7572C19.1401 29.0201 18.8975 29.2021 18.8975 29.5189C18.8975 29.8154 19.1334 30.0648 19.4097 30.0648C19.6995 30.0648 20.7577 29.7278 21.5598 29.3841C22.3619 29.0336 23.4605 28.4068 23.5481 28.245C23.6694 28.0226 23.629 27.7125 23.447 27.5373C23.2179 27.3014 22.928 27.3216 22.436 27.6182Z" fill="#6965FD"/>
<path d="M13.067 29.5525C12.8311 29.7884 12.8446 30.2265 13.1007 30.4085C13.5253 30.7253 17.0774 30.759 17.6637 30.4624C18.0075 30.2804 18.0142 29.7614 17.6705 29.5053C17.5087 29.384 17.4548 29.384 16.7404 29.4581C16.0124 29.539 14.2937 29.5188 13.559 29.4177C13.2827 29.3773 13.2288 29.3907 13.067 29.5525Z" fill="#6965FD"/>
</svg>
