<svg width="392" height="128" viewBox="0 0 392 128" fill="none" xmlns="http://www.w3.org/2000/svg">
<g filter="url(#filter0_d_1229_684)">
<path d="M35.169 92.352C30.305 92.352 25.8677 91.3707 21.857 89.408C17.8463 87.5307 14.6037 84.8427 12.129 81.344C9.73967 77.8453 8.545 73.7493 8.545 69.056C8.545 65.1307 9.48367 61.8453 11.361 59.2C13.2383 56.4693 15.4997 54.4213 18.145 53.056C20.8757 51.6053 23.5637 50.88 26.209 50.88C29.9637 50.88 33.121 51.8613 35.681 53.824C38.3263 55.7013 39.649 58.7307 39.649 62.912C39.649 66.0693 38.625 68.672 36.577 70.72C34.529 72.768 31.8837 73.792 28.641 73.792C27.873 73.792 27.489 73.4933 27.489 72.896C27.489 72.2133 27.8303 71.872 28.513 71.872C28.9397 71.872 29.409 71.7867 29.921 71.616C30.5183 71.4453 30.9877 71.3173 31.329 71.232C34.7423 69.952 36.449 67.264 36.449 63.168C36.449 59.6693 35.4677 57.1093 33.505 55.488C31.6277 53.8667 29.1957 53.056 26.209 53.056C24.2463 53.056 22.241 53.696 20.193 54.976C18.145 56.256 16.4383 58.0907 15.073 60.48C13.7077 62.8693 13.025 65.728 13.025 69.056C13.025 75.2 14.945 80.1493 18.785 83.904C22.625 87.5733 28.2143 89.408 35.553 89.408C40.5877 89.408 45.025 88.2987 48.865 86.08C52.7903 83.776 56.161 80.6613 58.977 76.736C61.8783 72.8107 64.225 68.416 66.017 63.552C67.4677 59.6267 68.577 55.5733 69.345 51.392C70.113 47.1253 70.8383 42.9013 71.521 38.72C72.289 34.4533 73.2277 30.4427 74.337 26.688C75.4463 22.848 76.9823 19.392 78.945 16.32C71.6917 13.6747 65.4623 11.712 60.257 10.432C55.137 9.06666 50.9983 8.384 47.841 8.384C41.7823 8.384 36.7903 10.176 32.865 13.76C29.025 17.344 27.105 22.1227 27.105 28.096C27.105 32.1067 28.2997 35.52 30.689 38.336C33.0783 41.0667 36.3637 42.432 40.545 42.432C43.0197 42.432 45.3663 41.8773 47.585 40.768C49.8037 39.6587 51.6383 38.1653 53.089 36.288C54.5397 34.4107 55.265 32.32 55.265 30.016V29.248C55.1797 29.1627 55.137 29.0773 55.137 28.992C55.137 28.8213 55.0943 28.6933 55.009 28.608C54.9237 28.4373 54.881 28.224 54.881 27.968C54.881 27.6267 55.1797 27.2427 55.777 26.816C56.9717 26.816 57.569 28.096 57.569 30.656C57.569 33.5573 56.7157 36.1173 55.009 38.336C53.3877 40.4693 51.2117 42.1333 48.481 43.328C45.8357 44.5227 42.9343 45.12 39.777 45.12C34.3157 45.12 30.177 43.3707 27.361 39.872C24.545 36.3733 23.137 31.936 23.137 26.56C23.137 22.0373 24.161 18.0693 26.209 14.656C28.257 11.2427 31.073 8.59733 34.657 6.71999C38.241 4.75733 42.337 3.77599 46.945 3.77599C50.3583 3.77599 53.6863 4.20266 56.929 5.056C60.257 5.82399 63.841 6.93333 67.681 8.384C71.6063 9.83466 76.0437 11.5413 80.993 13.504C82.4437 11.6267 84.065 10.2187 85.857 9.28C87.7343 8.256 89.1423 7.744 90.081 7.744C91.2757 7.744 91.873 8.256 91.873 9.28C91.617 9.28 91.1477 9.32266 90.465 9.408C89.8677 9.408 89.185 9.57866 88.417 9.92C87.649 10.2613 86.9237 10.7307 86.241 11.328C85.5583 11.84 84.6197 12.864 83.425 14.4C87.777 16.2773 91.9583 17.728 95.969 18.752C99.9797 19.776 103.948 20.288 107.873 20.288C109.58 20.288 111.542 20.1173 113.761 19.776C116.065 19.3493 118.07 18.7947 119.777 18.112C121.484 17.4293 122.337 16.6613 122.337 15.808C122.337 14.784 122.721 14.272 123.489 14.272C123.66 14.272 123.873 14.4 124.129 14.656C124.47 14.8267 124.641 15.2107 124.641 15.808C124.641 17.6853 123.105 19.264 120.033 20.544C117.046 21.824 112.993 22.464 107.873 22.464C99.169 22.464 90.465 20.7573 81.761 17.344C80.3957 19.904 79.329 23.1893 78.561 27.2C77.8783 31.2107 77.281 35.52 76.769 40.128C76.3423 44.736 75.8303 49.3013 75.233 53.824C74.6357 58.3467 73.7397 62.3573 72.545 65.856C69.8143 73.6213 65.4197 79.9787 59.361 84.928C53.3023 89.8773 45.2383 92.352 35.169 92.352ZM86.798 90.432C86.4567 90.432 86.286 90.1333 86.286 89.536C86.286 84.16 86.4567 78.2293 86.798 71.744C87.1393 65.2587 87.7367 58.688 88.59 52.032C89.4433 45.2907 90.51 38.848 91.79 32.704C93.1553 26.56 94.7767 21.056 96.654 16.192C98.5313 11.328 100.665 7.488 103.054 4.672C105.443 1.77066 108.131 0.319992 111.118 0.319992C115.726 0.319992 118.03 3.90399 118.03 11.072C118.03 15.5093 117.006 19.9467 114.958 24.384C112.91 28.736 110.137 32.6187 106.638 36.032C103.139 39.4453 99.1713 41.9627 94.734 43.584C94.5633 44.608 94.3073 45.9733 93.966 47.68C93.3687 51.1787 92.942 54.208 92.686 56.768C92.43 59.328 92.302 61.4613 92.302 63.168C95.8007 48.832 100.281 41.664 105.742 41.664C108.643 41.664 110.606 42.6027 111.63 44.48C112.654 46.3573 113.166 48.704 113.166 51.52C113.166 53.7387 112.953 56.128 112.526 58.688C112.185 61.1627 111.801 63.6373 111.374 66.112C110.606 70.0373 110.051 73.3227 109.71 75.968C109.369 78.6133 109.198 80.7893 109.198 82.496C109.198 84.6293 109.411 86.08 109.838 86.848C110.35 87.616 110.99 88 111.758 88C114.403 88 117.177 84.5867 120.078 77.76C120.931 75.7973 121.657 73.7067 122.254 71.488C122.937 69.184 123.406 67.3493 123.662 65.984C123.747 65.3867 124.046 65.088 124.558 65.088C125.07 65.088 125.283 65.3867 125.198 65.984C124.601 68.544 123.961 70.8907 123.278 73.024C122.681 75.072 122.041 76.9493 121.358 78.656C119.907 82.0693 118.286 84.8 116.494 86.848C114.787 88.896 112.867 89.92 110.734 89.92C108.601 89.92 106.851 89.152 105.486 87.616C104.206 85.9947 103.566 83.3067 103.566 79.552C103.566 76.5653 103.95 73.3227 104.718 69.824C105.486 66.3253 106.254 62.9973 107.022 59.84C107.79 56.6827 108.174 54.1227 108.174 52.16C108.174 47.1253 107.022 44.608 104.718 44.608C103.267 44.608 101.945 45.4613 100.75 47.168C99.5553 48.7893 98.4887 50.7947 97.55 53.184C96.6967 55.488 95.9287 57.7067 95.246 59.84C94.478 62.5707 93.7953 65.6427 93.198 69.056C92.686 72.384 92.2593 75.6693 91.918 78.912C91.662 82.0693 91.4487 84.8427 91.278 87.232H91.15C90.8087 87.232 90.3393 87.4027 89.742 87.744C89.23 88 88.7607 88.3413 88.334 88.768C87.7367 89.3653 87.3527 89.792 87.182 90.048C87.0967 90.304 86.9687 90.432 86.798 90.432ZM94.99 41.28C98.9153 39.9147 102.457 37.6107 105.614 34.368C108.857 31.04 111.417 27.328 113.294 23.232C115.257 19.0507 116.238 15.0827 116.238 11.328C116.238 8.59733 115.769 6.336 114.83 4.544C113.891 2.752 112.697 1.856 111.246 1.856C109.795 1.856 108.387 2.752 107.022 4.544C105.657 6.336 104.334 8.72533 103.054 11.712C101.859 14.6133 100.707 17.8133 99.598 21.312C98.574 24.8107 97.678 28.3093 96.91 31.808C96.142 35.3067 95.502 38.464 94.99 41.28ZM133.535 88.128C131.146 88.128 129.226 87.232 127.775 85.44C126.324 83.648 125.258 81.344 124.575 78.528C123.978 75.712 123.679 72.8533 123.679 69.952C123.679 65.6853 124.234 61.504 125.343 57.408C126.538 53.2267 128.244 49.7707 130.463 47.04C132.767 44.3093 135.583 42.944 138.911 42.944C143.69 42.944 146.378 46.5707 146.975 53.824L148.127 43.328C148.383 43.4133 148.767 43.456 149.279 43.456C150.9 43.456 152.223 42.5173 153.247 40.64C153.332 40.2987 153.503 40.128 153.759 40.128C154.1 40.128 154.314 40.384 154.399 40.896L151.711 63.68C151.199 68.032 150.943 72.256 150.943 76.352C150.943 79.5947 151.156 82.0267 151.583 83.648C152.095 85.2693 152.991 86.08 154.271 86.08C155.722 86.08 157.044 85.44 158.239 84.16C159.434 82.7947 160.5 81.088 161.439 79.04C162.378 76.9067 163.188 74.688 163.871 72.384C164.639 70.08 165.194 67.9467 165.535 65.984C165.706 65.0453 166.004 64.576 166.431 64.576C166.943 64.576 167.156 65.0453 167.071 65.984C166.388 69.4827 165.535 72.9387 164.511 76.352C163.487 79.68 162.079 82.4533 160.287 84.672C158.495 86.8053 156.148 87.872 153.247 87.872C151.199 87.872 149.578 87.104 148.383 85.568C147.274 83.9467 146.506 81.984 146.079 79.68C145.652 77.2907 145.439 74.944 145.439 72.64C142.964 82.0267 139.594 87.1467 135.327 88C134.986 88.0853 134.687 88.128 134.431 88.128C134.175 88.128 133.876 88.128 133.535 88.128ZM134.687 86.464C136.564 86.208 138.186 84.928 139.551 82.624C141.002 80.32 142.196 77.5893 143.135 74.432C144.159 71.1893 144.884 68.1173 145.311 65.216C145.567 63.424 145.695 61.4613 145.695 59.328C145.695 56.9387 145.482 54.6347 145.055 52.416C144.714 50.112 144.116 48.2347 143.263 46.784C142.41 45.248 141.215 44.48 139.679 44.48C138.228 44.48 136.863 45.376 135.583 47.168C134.388 48.96 133.322 51.264 132.383 54.08C131.53 56.8107 130.847 59.6693 130.335 62.656C129.823 65.5573 129.567 68.16 129.567 70.464C129.567 72.768 129.738 75.2 130.079 77.76C130.42 80.32 130.975 82.4533 131.743 84.16C132.511 85.8667 133.492 86.6347 134.687 86.464ZM163.506 91.072C163.421 90.9013 163.421 90.6453 163.506 90.304L167.602 43.712C167.943 43.7973 168.37 43.84 168.882 43.84C171.015 43.84 172.679 43.0293 173.874 41.408C174.045 41.152 174.215 41.024 174.386 41.024C174.813 41.024 174.941 41.28 174.77 41.792C174.599 42.4747 174.258 44.1813 173.746 46.912C173.234 49.6427 172.551 53.6533 171.698 58.944C172.893 53.9093 174.642 49.856 176.946 46.784C179.25 43.712 181.981 42.176 185.138 42.176C187.869 42.176 189.703 43.1147 190.642 44.992C191.666 46.8693 192.178 49.216 192.178 52.032C192.178 54.4213 191.922 56.9813 191.41 59.712C190.983 62.4427 190.557 65.1307 190.13 67.776C189.703 70.592 189.277 73.28 188.85 75.84C188.509 78.4 188.338 80.6613 188.338 82.624C188.338 84.2453 188.551 85.568 188.978 86.592C189.405 87.616 190.173 88.128 191.282 88.128C192.818 88.128 194.439 86.976 196.146 84.672C197.853 82.368 199.389 79.5093 200.754 76.096C202.119 72.5973 203.058 69.2267 203.57 65.984C203.655 65.728 203.741 65.4293 203.826 65.088C203.911 64.7467 204.125 64.576 204.466 64.576C204.893 64.576 205.106 64.7467 205.106 65.088C205.191 65.344 205.191 65.6427 205.106 65.984C204.765 68.4587 204.167 71.104 203.314 73.92C202.461 76.6507 201.351 79.2533 199.986 81.728C198.706 84.1173 197.255 86.08 195.634 87.616C194.013 89.0667 192.263 89.792 190.386 89.792C187.485 89.792 185.479 88.896 184.37 87.104C183.261 85.312 182.706 82.752 182.706 79.424C182.706 76.096 183.09 72.2133 183.858 67.776C184.541 64.3627 185.181 61.12 185.778 58.048C186.375 54.8907 186.674 52.2027 186.674 49.984C186.674 48.192 186.375 46.784 185.778 45.76C185.266 44.736 184.285 44.224 182.834 44.224C181.469 44.224 180.146 45.0347 178.866 46.656C177.671 48.2773 176.562 50.2827 175.538 52.672C174.514 55.0613 173.618 57.4933 172.85 59.968C172.167 62.3573 171.698 64.32 171.442 65.856C170.845 68.928 170.333 72.5973 169.906 76.864C169.565 81.0453 169.266 84.7147 169.01 87.872C166.791 87.616 165.383 88.4267 164.786 90.304C164.701 90.6453 164.487 90.9013 164.146 91.072C163.89 91.2427 163.677 91.2427 163.506 91.072ZM202.146 88.896C201.719 88.896 201.506 88.5547 201.506 87.872C201.847 81.8133 202.615 73.8347 203.81 63.936C204.493 58.1333 205.303 52.288 206.242 46.4C207.266 40.4267 208.461 34.7947 209.826 29.504C211.191 24.128 212.77 19.3493 214.562 15.168C216.439 10.9867 218.573 7.70133 220.962 5.312C223.351 2.83733 226.082 1.6 229.154 1.6C233.933 1.6 236.322 4.288 236.322 9.66399C236.322 12.6507 235.639 15.936 234.274 19.52C232.909 23.104 231.074 26.6453 228.77 30.144C226.466 33.5573 223.906 36.544 221.09 39.104C218.359 41.5787 215.543 43.2 212.642 43.968C210.594 53.0133 209.058 61.76 208.034 70.208C208.375 69.0987 208.759 67.776 209.186 66.24C209.613 64.704 210.125 62.8693 210.722 60.736C212.002 56.8107 213.581 53.2693 215.458 50.112C217.335 46.9547 219.341 44.4373 221.474 42.56C223.693 40.5973 225.826 39.616 227.874 39.616C231.885 39.616 233.89 41.8347 233.89 46.272C233.89 49.0027 233.037 51.392 231.33 53.44C229.623 55.488 227.49 57.152 224.93 58.432C222.37 59.712 219.81 60.608 217.25 61.12C218.445 61.12 219.469 61.6747 220.322 62.784C221.602 64.4907 222.498 67.264 223.01 71.104C223.181 72.896 223.351 74.688 223.522 76.48C223.693 78.272 223.863 80.0213 224.034 81.728C224.205 83.264 224.589 84.3733 225.186 85.056C225.869 85.7387 226.637 86.08 227.49 86.08C229.026 86.08 230.434 85.3547 231.714 83.904C232.994 82.4533 234.146 80.6613 235.17 78.528C236.194 76.3947 237.047 74.176 237.73 71.872C238.498 69.568 239.01 67.6053 239.266 65.984C239.437 65.3013 239.693 64.96 240.034 64.96C240.461 64.96 240.674 65.088 240.674 65.344C240.759 65.6 240.802 65.8133 240.802 65.984C240.034 69.9093 239.01 73.536 237.73 76.864C236.45 80.192 234.829 82.9227 232.866 85.056C230.989 87.104 228.642 88.128 225.826 88.128C224.034 88.128 222.37 87.616 220.834 86.592C219.383 85.4827 218.359 83.9893 217.762 82.112C217.335 80.576 217.037 78.7413 216.866 76.608C216.781 74.4747 216.738 72.4267 216.738 70.464C216.738 68.5013 216.695 67.0933 216.61 66.24C216.525 64.5333 216.183 63.296 215.586 62.528C215.074 61.76 214.05 61.3333 212.514 61.248L212.258 62.144C208.333 75.712 206.37 84.1173 206.37 87.36L204.706 87.232C203.767 87.0613 203.085 87.5307 202.658 88.64C202.573 88.8107 202.402 88.896 202.146 88.896ZM213.154 42.048C215.458 41.28 217.847 39.7013 220.322 37.312C222.882 34.9227 225.186 32.1493 227.234 28.992C229.367 25.7493 231.074 22.464 232.354 19.136C233.719 15.808 234.402 12.8213 234.402 10.176C234.402 6.08 233.079 4.032 230.434 4.032C228.045 4.032 225.826 5.65333 223.778 8.896C221.73 12.1387 219.639 17.472 217.506 24.896C216.994 26.7733 216.354 29.12 215.586 31.936C214.903 34.752 214.093 38.1227 213.154 42.048ZM213.282 59.84C215.074 59.9253 216.951 59.4987 218.914 58.56C220.877 57.536 222.711 56.256 224.418 54.72C226.125 53.184 227.49 51.5627 228.514 49.856C229.623 48.1493 230.178 46.5707 230.178 45.12C230.178 43.6693 229.922 42.688 229.41 42.176C228.898 41.664 228.13 41.408 227.106 41.408C225.57 41.408 223.863 42.432 221.986 44.48C220.194 46.528 218.487 49.0027 216.866 51.904C215.33 54.72 214.135 57.3653 213.282 59.84ZM269.829 119.616C267.525 119.616 265.818 118.933 264.709 117.568C263.685 116.288 263.173 114.709 263.173 112.832C263.173 109.419 264.154 106.091 266.117 102.848C268.08 99.6907 270.597 96.6187 273.669 93.632C276.741 90.7307 279.984 88.0427 283.397 85.568V80.576C283.397 78.9547 283.354 77.5467 283.269 76.352C283.269 75.1573 283.269 74.1333 283.269 73.28C283.269 70.6347 283.653 66.4533 284.421 60.736C283.312 65.9413 282.117 70.6773 280.837 74.944C279.642 79.1253 278.192 82.4533 276.485 84.928C274.864 87.4027 272.858 88.64 270.469 88.64C268.336 88.64 266.416 87.616 264.709 85.568C263.088 83.52 262.277 79.9787 262.277 74.944C262.277 71.2747 262.704 67.9467 263.557 64.96C264.41 61.9733 265.264 59.0293 266.117 56.128C267.056 53.1413 267.525 49.9413 267.525 46.528C267.525 44.224 266.928 43.072 265.733 43.072C264.965 43.072 264.24 43.5413 263.557 44.48C262.96 45.3333 262.533 46.2293 262.277 47.168C262.192 47.168 262.021 47.0827 261.765 46.912C261.509 46.7413 261.381 46.3573 261.381 45.76C261.381 44.48 262.064 43.328 263.429 42.304C264.794 41.28 266.288 40.768 267.909 40.768C271.322 40.768 273.029 42.7307 273.029 46.656C273.029 49.728 272.56 52.928 271.621 56.256C270.768 59.584 269.872 63.04 268.933 66.624C267.994 70.208 267.525 73.92 267.525 77.76C267.525 80.7467 267.824 82.9227 268.421 84.288C269.104 85.6533 269.957 86.336 270.981 86.336C272.688 86.336 274.437 84.5867 276.229 81.088C278.106 77.5893 279.813 72.4693 281.349 65.728C282.629 60.096 284.122 55.36 285.829 51.52C287.536 47.5947 289.242 44.5653 290.949 42.432C292.314 40.5547 293.637 39.616 294.917 39.616C296.197 39.616 296.837 40.2987 296.837 41.664C296.837 42.7733 296.026 43.584 294.405 44.096C292.869 44.5227 291.504 45.888 290.309 48.192C289.114 50.496 288.176 53.184 287.493 56.256C286.81 59.2427 286.469 62.0587 286.469 64.704C286.469 66.8373 286.597 69.2693 286.853 72C287.194 74.6453 287.493 76.992 287.749 79.04C288.005 81.0027 288.133 82.0693 288.133 82.24C289.498 81.3013 290.992 80.2347 292.613 79.04C294.234 77.76 295.77 76.096 297.221 74.048C298.672 72 299.738 69.312 300.421 65.984C300.592 65.472 300.89 65.216 301.317 65.216C301.744 65.216 301.957 65.472 301.957 65.984C301.104 69.4827 300.037 72.2987 298.757 74.432C297.477 76.5653 295.984 78.3573 294.277 79.808C292.57 81.2587 290.565 82.7093 288.261 84.16C288.432 85.5253 288.56 86.848 288.645 88.128C288.73 89.408 288.773 90.688 288.773 91.968C288.773 97.0027 288.09 101.611 286.725 105.792C285.445 109.973 283.397 113.301 280.581 115.776C277.85 118.336 274.266 119.616 269.829 119.616ZM269.317 117.952C272.73 117.952 275.461 116.416 277.509 113.344C279.557 110.272 281.05 106.773 281.989 102.848C283.098 98.4107 283.653 93.376 283.653 87.744C278.533 92.096 274.138 96.2773 270.469 100.288C266.885 104.384 265.093 108.48 265.093 112.576C265.093 116.16 266.501 117.952 269.317 117.952ZM313.997 89.152C309.389 89.152 305.933 87.4027 303.629 83.904C301.41 80.4053 300.301 75.328 300.301 68.672C300.301 65.4293 300.6 62.4853 301.197 59.84C301.88 57.1947 302.776 54.8053 303.885 52.672C304.226 48.1493 305.549 44.3947 307.853 41.408C310.242 38.336 313.186 36.8 316.685 36.8C319.672 36.8 322.189 37.8667 324.237 40C326.285 42.048 327.821 44.7787 328.845 48.192C329.869 51.52 330.381 55.0613 330.381 58.816C330.381 62.0587 330.168 65.0453 329.741 67.776C329.314 70.5067 328.632 73.152 327.693 75.712C329.314 75.5413 331.064 74.688 332.941 73.152C334.818 71.616 336.226 69.2267 337.165 65.984C337.25 65.3867 337.549 65.088 338.061 65.088C338.573 65.088 338.786 65.3867 338.701 65.984C337.848 69.7387 336.354 72.512 334.221 74.304C332.088 76.096 329.698 77.2053 327.053 77.632C323.725 85.312 319.373 89.152 313.997 89.152ZM325.005 75.968C325.944 73.4933 326.584 70.848 326.925 68.032C327.266 65.1307 327.437 62.1013 327.437 58.944C327.437 55.4453 327.053 52.16 326.285 49.088C325.602 45.9307 324.45 43.4133 322.829 41.536C321.293 39.5733 319.245 38.592 316.685 38.592C314.21 38.592 312.162 39.4453 310.541 41.152C308.92 42.7733 307.81 45.0773 307.213 48.064C309.432 45.76 312.504 44.5227 316.429 44.352C319.245 44.352 320.653 44.9067 320.653 46.016C320.653 46.6133 320.312 46.784 319.629 46.528C318.52 46.1013 317.581 45.888 316.813 45.888C313.485 45.888 310.797 48.8747 308.749 54.848C308.066 56.896 307.725 58.9013 307.725 60.864C307.725 62.3147 307.938 63.5947 308.365 64.704C309.901 68.6293 312.077 71.5733 314.893 73.536C317.709 75.4987 321.08 76.3093 325.005 75.968ZM314.637 87.232C318.477 87.232 321.72 84.032 324.365 77.632C323.938 77.7173 323.512 77.76 323.085 77.76C322.658 77.76 322.232 77.76 321.805 77.76C317.88 77.76 314.552 76.5227 311.821 74.048C309.09 71.5733 307.256 68.672 306.317 65.344C306.232 66.368 306.189 67.392 306.189 68.416C306.189 69.44 306.189 70.464 306.189 71.488C306.189 74.2187 306.402 76.8213 306.829 79.296C307.256 81.6853 308.066 83.6053 309.261 85.056C310.456 86.5067 312.248 87.232 314.637 87.232ZM346.139 88.256C340.08 88.256 337.051 82.4107 337.051 70.72C337.051 69.6107 337.136 67.8187 337.307 65.344C337.478 62.784 337.648 60.0533 337.819 57.152C338.075 54.2507 338.331 51.6053 338.587 49.216C338.843 46.8267 339.056 45.2053 339.227 44.352C342.128 44.5227 343.963 43.6693 344.731 41.792C344.987 41.1947 345.286 40.896 345.627 40.896C345.798 40.896 345.883 41.024 345.883 41.28C345.883 41.6213 345.84 41.9627 345.755 42.304C345.414 43.9253 345.03 46.016 344.603 48.576C344.262 51.136 343.92 53.824 343.579 56.64C343.323 59.456 343.067 62.144 342.811 64.704C342.64 67.1787 342.555 69.2693 342.555 70.976C342.555 76.0107 342.811 79.8507 343.323 82.496C343.92 85.1413 344.944 86.464 346.395 86.464C347.59 86.464 348.614 86.0373 349.467 85.184C350.32 84.3307 351.302 82.7947 352.411 80.576C354.544 75.968 355.91 70.6347 356.507 64.576C357.36 57.4933 357.872 52.3733 358.043 49.216C358.299 45.9733 358.427 43.7973 358.427 42.688C361.414 42.8587 363.291 42.0053 364.059 40.128C364.23 39.7013 364.443 39.488 364.699 39.488C365.04 39.488 365.168 39.8293 365.083 40.512C364.23 46.912 363.504 52.2027 362.907 56.384C362.395 60.5653 361.968 63.9787 361.627 66.624C361.371 69.2693 361.158 71.488 360.987 73.28C360.902 74.9867 360.859 76.608 360.859 78.144C360.859 80.1067 361.03 81.984 361.371 83.776C361.798 85.568 362.736 86.464 364.187 86.464C366.15 86.464 367.899 84.8427 369.435 81.6C370.459 79.4667 371.355 76.992 372.123 74.176C372.976 71.2747 373.616 68.544 374.043 65.984C374.214 65.3867 374.512 65.088 374.939 65.088C375.366 65.088 375.579 65.3867 375.579 65.984C374.299 73.4933 372.678 79.0827 370.715 82.752C368.752 86.336 366.278 88.128 363.291 88.128C361.499 88.128 360.048 87.5733 358.939 86.464C357.83 85.2693 357.019 83.8613 356.507 82.24C355.995 80.5333 355.739 78.8693 355.739 77.248C353.264 84.5867 350.064 88.256 346.139 88.256ZM384.422 66.368L383.782 14.4C383.782 13.2907 384.081 12.3093 384.678 11.456C385.361 10.5173 386.385 10.048 387.75 10.048C389.627 10.048 390.779 10.6027 391.206 11.712C391.633 12.736 391.803 13.632 391.718 14.4L386.086 66.368H384.422ZM384.806 87.872C383.611 87.872 382.587 87.4453 381.734 86.592C380.881 85.7387 380.454 84.7147 380.454 83.52C380.454 82.3253 380.881 81.344 381.734 80.576C382.587 79.7227 383.611 79.296 384.806 79.296C386.001 79.296 386.982 79.7227 387.75 80.576C388.603 81.344 389.03 82.3253 389.03 83.52C389.03 84.7147 388.603 85.7387 387.75 86.592C386.982 87.4453 386.001 87.872 384.806 87.872Z" fill="#6965FD"/>
</g>
<defs>
<filter id="filter0_d_1229_684" x="0.546875" y="0.319946" width="391.297" height="127.296" filterUnits="userSpaceOnUse" color-interpolation-filters="sRGB">
<feFlood flood-opacity="0" result="BackgroundImageFix"/>
<feColorMatrix in="SourceAlpha" type="matrix" values="0 0 0 0 0 0 0 0 0 0 0 0 0 0 0 0 0 0 127 0" result="hardAlpha"/>
<feOffset dx="-4" dy="4"/>
<feGaussianBlur stdDeviation="2"/>
<feComposite in2="hardAlpha" operator="out"/>
<feColorMatrix type="matrix" values="0 0 0 0 0 0 0 0 0 0 0 0 0 0 0 0 0 0 0.25 0"/>
<feBlend mode="normal" in2="BackgroundImageFix" result="effect1_dropShadow_1229_684"/>
<feBlend mode="normal" in="SourceGraphic" in2="effect1_dropShadow_1229_684" result="shape"/>
</filter>
</defs>
</svg>
