<svg width="12" height="11" viewBox="0 0 12 11" fill="none" xmlns="http://www.w3.org/2000/svg">
<path d="M11.1482 0.543479C11.077 0.560096 10.9749 0.593328 10.9227 0.614693C10.6568 0.728634 9.18509 1.83957 8.29729 2.59918C6.9205 3.77895 5.83568 4.93498 4.26898 6.88861C3.94377 7.29215 3.87731 7.36574 3.8417 7.34675C3.82034 7.3325 3.12957 6.81502 2.31061 6.19546C0.933815 5.15574 0.810378 5.06554 0.689315 5.0418C0.430573 4.9872 0.200316 5.10589 0.0673836 5.35989C-0.0204465 5.52843 -0.0228202 5.78242 0.062636 5.95808C0.15284 6.14086 3.25538 10.5063 3.43341 10.6985C3.6518 10.9359 3.74912 11 3.87968 11C4.08145 11 4.21439 10.8837 4.47075 10.4778C4.52298 10.3923 4.80071 9.94367 5.08556 9.48078C7.28131 5.89874 8.57503 4.17062 10.5809 2.14341C10.8349 1.88704 11.2289 1.51198 11.4568 1.31021C11.6847 1.10607 11.9031 0.906668 11.9434 0.866314C12.0099 0.7951 12.0123 0.787979 11.979 0.72626C11.9577 0.690654 11.8817 0.63131 11.8057 0.593328C11.6918 0.536358 11.6348 0.522115 11.4734 0.514994C11.3595 0.51262 11.2242 0.522115 11.1482 0.543479Z" fill="currentColor"/>
</svg>
