<svg width="192" height="43" viewBox="0 0 192 43" fill="none" xmlns="http://www.w3.org/2000/svg">
<g filter="url(#filter0_d_1085_794)">
<path d="M8.7709 30.05C7.6709 30.05 7.1209 28.5667 7.1209 25.6C7.1209 24.6667 7.13757 23.5 7.1709 22.1C7.23757 20.7 7.30423 19.0833 7.3709 17.25C7.5709 13.55 7.6709 10.7667 7.6709 8.9C7.10423 9.56667 6.55423 9.9 6.0209 9.9C5.75423 9.9 5.40423 9.8 4.9709 9.6C4.5709 9.36667 4.3709 9.13333 4.3709 8.9C4.3709 8.8 4.45423 8.75 4.6209 8.75H4.7709C5.13757 9.01667 5.43757 9.15 5.6709 9.15C6.3709 9.15 6.8709 8.4 7.1709 6.9C7.30423 6.26667 7.45423 5.33333 7.6209 4.1C7.7209 3.93333 7.95423 3.85 8.3209 3.85C9.18757 3.85 9.6209 4.13333 9.6209 4.7C9.6209 4.76667 9.58757 4.86667 9.5209 5C9.7209 5.63333 9.8209 6.65 9.8209 8.05C9.8209 8.88333 9.78757 9.91667 9.7209 11.15C9.65423 12.35 9.55423 13.7833 9.4209 15.45C9.28757 17.0833 9.18757 18.5167 9.1209 19.75C9.05423 20.9833 9.0209 22.0167 9.0209 22.85C9.0209 25.85 9.45423 27.35 10.3209 27.35C11.3209 27.35 13.0042 25.4167 15.3709 21.55C15.6709 21.05 16.3209 19.9 17.3209 18.1C18.3209 16.3 19.6876 13.8667 21.4209 10.8C23.5876 6.93333 24.9209 5 25.4209 5C25.5876 5 25.6876 5.21667 25.7209 5.65C25.7209 6.11667 25.7209 6.78333 25.7209 7.65C25.7542 8.48333 25.7876 9.51667 25.8209 10.75C26.1209 21.7167 28.1709 27.2 31.9709 27.2C34.6042 27.2 36.6876 25.35 38.2209 21.65C39.3876 18.75 39.9709 15.7667 39.9709 12.7C39.9709 7.5 38.5542 4.28333 35.7209 3.05C35.6542 3.01667 35.4376 2.96667 35.0709 2.9C34.7042 2.8 34.1876 2.68333 33.5209 2.55C33.2209 2.48333 33.0709 2.35 33.0709 2.15C33.0709 1.88333 33.3042 1.65 33.7709 1.45C34.2376 1.21667 34.6209 1.1 34.9209 1.1C37.2209 1.1 38.9209 2.18333 40.0209 4.35C40.8876 6.01667 41.3209 8.11667 41.3209 10.65C41.3209 15.9167 39.9542 20.7167 37.2209 25.05C35.2876 28.0833 33.1542 29.6 30.8209 29.6C28.0209 29.6 26.0542 26.6333 24.9209 20.7C24.5876 19.0333 24.3376 17.35 24.1709 15.65C24.0042 13.9167 23.9209 12.15 23.9209 10.35C23.9209 10.0167 23.9209 9.7 23.9209 9.4C23.9542 9.06667 23.9709 8.73333 23.9709 8.4L16.8709 20.55C13.1709 26.8833 10.4709 30.05 8.7709 30.05ZM44.8744 30.55C42.5744 30.55 41.4244 28.8167 41.4244 25.35C41.4244 24.7833 41.4411 24.2333 41.4744 23.7C41.5411 23.1333 41.6411 22.5833 41.7744 22.05C41.3744 21.7833 41.1744 21.5667 41.1744 21.4C41.1744 21.1 41.5244 20.8333 42.2244 20.6C42.5577 19.6 43.0411 18.4667 43.6744 17.2C44.5744 15.4667 45.2577 14.6 45.7244 14.6C46.2577 14.6 46.6577 14.8333 46.9244 15.3C47.1244 14.8333 47.3577 14.6 47.6244 14.6C48.5577 14.6 49.0244 15.1667 49.0244 16.3C49.0244 17.1667 48.8577 17.9333 48.5244 18.6C48.7577 18.8667 48.8744 19.1167 48.8744 19.35C48.8744 19.4167 48.8244 19.4833 48.7244 19.55L45.9244 20.45C45.3911 20.6167 44.9077 20.8333 44.4744 21.1C44.0744 21.3667 43.7077 21.65 43.3744 21.95C43.0077 23.05 42.8244 24.2333 42.8244 25.5C42.8244 28.3 43.6911 29.7 45.4244 29.7C47.7244 29.7 49.8911 27.8333 51.9244 24.1C52.0244 23.9333 52.1077 23.85 52.1744 23.85C52.2744 23.85 52.3244 23.95 52.3244 24.15C52.3244 24.3167 52.2744 24.5 52.1744 24.7C51.3744 26.3 50.4077 27.6167 49.2744 28.65C47.8411 29.9167 46.3744 30.55 44.8744 30.55ZM43.9744 20.2C44.3077 20.1 44.6911 19.9833 45.1244 19.85C45.5911 19.6833 46.0911 19.4833 46.6244 19.25C46.7911 19.1167 47.0077 18.7 47.2744 18C47.5077 17.4 47.6244 16.9167 47.6244 16.55C47.6244 16.1167 47.4577 15.9 47.1244 15.9C46.7577 15.9 46.1577 16.5167 45.3244 17.75C44.4577 18.95 44.0077 19.7667 43.9744 20.2ZM54.0924 32.6C52.8924 32.6 52.2924 31.1 52.2924 28.1C52.2924 27.6667 52.2924 27.25 52.2924 26.85C52.3257 26.45 52.359 26.0333 52.3924 25.6C52.759 20.9 53.0424 17 53.2424 13.9C53.4424 10.8 53.5424 8.48333 53.5424 6.95C53.5424 3.61666 52.8924 1.95 51.5924 1.95C51.2924 1.95 50.9924 2 50.6924 2.1C50.659 2.13333 50.609 2.15 50.5424 2.15C50.409 2.15 50.3424 2.06666 50.3424 1.9C50.3424 1.66667 50.9257 1.35 52.0924 0.949998C53.1924 0.516665 53.959 0.299998 54.3924 0.299998C55.159 0.299998 55.5424 0.983331 55.5424 2.35C55.5424 3.08333 55.4924 4.06667 55.3924 5.3C55.3257 6.53333 55.209 8 55.0424 9.7C54.2424 17.8333 53.8424 22.9833 53.8424 25.15C53.8424 29.1167 54.3757 31.1 55.4424 31.1C55.709 31.1 55.959 31.0167 56.1924 30.85C56.4257 30.6833 56.659 30.4667 56.8924 30.2L57.6424 29.35C57.7424 29.35 57.7924 29.45 57.7924 29.65C57.7924 30.0833 57.2924 30.6833 56.2924 31.45C55.3257 32.2167 54.5924 32.6 54.0924 32.6ZM61.6689 30.55C59.5356 30.55 58.4689 28.9333 58.4689 25.7C58.4689 24.1 58.7023 22.6 59.1689 21.2C59.3356 20.7667 59.5189 20.3 59.7189 19.8C59.9523 19.2667 60.2356 18.6833 60.5689 18.05C61.4023 16.4167 62.0189 15.6 62.4189 15.6C62.9856 15.6 63.3856 15.8167 63.6189 16.25C63.6856 16.05 63.8356 15.95 64.0689 15.95C64.5356 15.95 64.9856 16.1667 65.4189 16.6C65.8523 17.0333 66.0689 17.4833 66.0689 17.95C66.0689 18.45 65.8689 18.95 65.4689 19.45C65.0689 19.9167 64.6189 20.15 64.1189 20.15C64.0523 20.15 63.9856 20.1167 63.9189 20.05C64.6189 18.95 64.9689 18.1333 64.9689 17.6C64.9689 17 64.7523 16.7 64.3189 16.7C63.1856 16.7 62.0356 18.2833 60.8689 21.45C60.1023 23.5833 59.7189 25.3 59.7189 26.6C59.7189 28.7 60.5356 29.75 62.1689 29.75C64.0356 29.75 65.9189 28.5 67.8189 26C68.4523 25.1667 68.8023 24.7333 68.8689 24.7C68.9689 24.7 69.0189 24.7667 69.0189 24.9C69.0189 24.9333 68.9856 25.05 68.9189 25.25C67.0856 28.7833 64.6689 30.55 61.6689 30.55ZM70.7869 29.9C69.2202 29.9 68.4369 28.3333 68.4369 25.2C68.4369 24.0333 68.5369 22.8667 68.7369 21.7C68.9369 20.5333 69.2202 19.3667 69.5869 18.2C69.8869 17.2667 70.4036 16.4667 71.1369 15.8C71.9036 15.1 72.7536 14.75 73.6869 14.75C74.0202 14.75 74.2036 14.8167 74.2369 14.95C74.1702 15.0833 74.0869 15.1167 73.9869 15.05C72.6536 15.3833 71.6536 16.75 70.9869 19.15C70.7536 20.0167 70.5702 20.9167 70.4369 21.85C70.3369 22.7833 70.2869 23.75 70.2869 24.75C70.2869 27.1833 70.6869 28.4 71.4869 28.4C72.5869 28.4 73.4369 27.2 74.0369 24.8C74.4369 23.1333 74.6369 21.45 74.6369 19.75C74.6369 18.65 74.4536 17.8167 74.0869 17.25C73.7202 16.65 73.5369 16.4 73.5369 16.5C73.5369 16.2333 73.7202 16.1 74.0869 16.1C75.0869 16.1 75.5869 17.35 75.5869 19.85C75.5869 21.75 75.2202 23.7333 74.4869 25.8C73.5536 28.5333 72.3202 29.9 70.7869 29.9ZM78.2189 30.05C77.9523 30.05 77.8189 29.7 77.8189 29C77.8189 28.4667 77.8689 27.9333 77.9689 27.4C78.4023 25.1333 78.7189 23.1833 78.9189 21.55C79.1523 19.9167 79.2689 18.6167 79.2689 17.65C79.2689 16.75 79.1356 16.1667 78.8689 15.9C78.6356 15.6333 78.0689 15.5 77.1689 15.5C76.9689 15.5 76.7023 15.55 76.3689 15.65C76.0023 15.7167 75.7356 15.75 75.5689 15.75C75.4356 15.75 75.3689 15.7167 75.3689 15.65C75.3689 15.55 75.8189 15.2833 76.7189 14.85C78.4856 13.95 79.4023 13.5 79.4689 13.5C80.3023 13.5 80.7189 14.35 80.7189 16.05C80.7189 16.5167 80.6189 17.5167 80.4189 19.05C80.2189 20.5833 79.9356 22.6333 79.5689 25.2L79.3689 26.55L79.4189 26.65C82.5189 21.1167 84.5189 18.35 85.4189 18.35C85.9189 18.35 86.1356 20.5 86.0689 24.8C86.3023 24.5 86.7523 23.8833 87.4189 22.95C88.1189 22.0167 89.0523 20.7833 90.2189 19.25L92.1689 17.4C92.4356 17.1333 92.6356 17 92.7689 17C92.8356 17 92.8689 17.05 92.8689 17.15C92.8689 17.25 92.8189 17.4 92.7189 17.6C91.9189 19.3333 91.5189 21.6667 91.5189 24.6C91.5189 27.1 92.1189 28.35 93.3189 28.35C93.7856 28.35 94.5189 27.7167 95.5189 26.45V26.6C95.5189 27 95.1356 27.6833 94.3689 28.65C93.6356 29.5833 93.0689 30.05 92.6689 30.05C91.0356 30.05 90.2189 28.3 90.2189 24.8C90.2189 23.2667 90.3189 21.8833 90.5189 20.65C89.3856 21.1833 88.0356 22.7167 86.4689 25.25L85.7689 26.65C85.6023 26.9167 85.4189 27.05 85.2189 27.05C84.7523 27.05 84.4856 26.3 84.4189 24.8C84.4189 24.5333 84.4189 24.1667 84.4189 23.7C84.4189 23.2333 84.4356 22.6667 84.4689 22C84.4356 21.4333 84.3189 21.05 84.1189 20.85C83.2189 21.1167 81.5523 23.8333 79.1189 29C78.7856 29.7 78.4856 30.05 78.2189 30.05ZM99.1225 30.55C96.8225 30.55 95.6725 28.8167 95.6725 25.35C95.6725 24.7833 95.6891 24.2333 95.7225 23.7C95.7891 23.1333 95.8891 22.5833 96.0225 22.05C95.6225 21.7833 95.4225 21.5667 95.4225 21.4C95.4225 21.1 95.7725 20.8333 96.4725 20.6C96.8058 19.6 97.2891 18.4667 97.9225 17.2C98.8225 15.4667 99.5058 14.6 99.9725 14.6C100.506 14.6 100.906 14.8333 101.172 15.3C101.372 14.8333 101.606 14.6 101.872 14.6C102.806 14.6 103.272 15.1667 103.272 16.3C103.272 17.1667 103.106 17.9333 102.772 18.6C103.006 18.8667 103.122 19.1167 103.122 19.35C103.122 19.4167 103.072 19.4833 102.972 19.55L100.172 20.45C99.6391 20.6167 99.1558 20.8333 98.7225 21.1C98.3225 21.3667 97.9558 21.65 97.6225 21.95C97.2558 23.05 97.0725 24.2333 97.0725 25.5C97.0725 28.3 97.9391 29.7 99.6725 29.7C101.972 29.7 104.139 27.8333 106.172 24.1C106.272 23.9333 106.356 23.85 106.422 23.85C106.522 23.85 106.572 23.95 106.572 24.15C106.572 24.3167 106.522 24.5 106.422 24.7C105.622 26.3 104.656 27.6167 103.522 28.65C102.089 29.9167 100.622 30.55 99.1225 30.55ZM98.2225 20.2C98.5558 20.1 98.9391 19.9833 99.3725 19.85C99.8391 19.6833 100.339 19.4833 100.872 19.25C101.039 19.1167 101.256 18.7 101.522 18C101.756 17.4 101.872 16.9167 101.872 16.55C101.872 16.1167 101.706 15.9 101.372 15.9C101.006 15.9 100.406 16.5167 99.5725 17.75C98.7058 18.95 98.2558 19.7667 98.2225 20.2ZM121.92 34.95C120.653 34.95 120.02 33.2667 120.02 29.9C120.02 28.7333 120.12 27 120.32 24.7C120.453 23.5333 120.537 22.5167 120.57 21.65C120.637 20.75 120.67 20.0167 120.67 19.45C120.237 19.6833 119.887 19.8 119.62 19.8C119.487 19.8 119.42 19.6833 119.42 19.45C119.42 18.5833 120.037 17.8 121.27 17.1C121.97 14.1333 122.32 11.15 122.32 8.15C122.32 7.71667 122.32 7.3 122.32 6.9C122.32 6.5 122.303 6.1 122.27 5.7C122.903 4.56666 123.52 4 124.12 4C124.553 4 124.77 4.41666 124.77 5.25C124.77 5.88333 124.687 6.7 124.52 7.7C124.387 8.66667 124.153 9.78333 123.82 11.05C123.22 13.5833 122.92 15.5 122.92 16.8C123.153 16.9667 123.453 17.05 123.82 17.05C125.52 17.05 128.087 15.8833 131.52 13.55C135.153 11.1167 136.97 9.11667 136.97 7.55C136.97 5.05 133.27 3.8 125.87 3.8C124.137 3.8 122.403 3.85 120.67 3.95C118.97 4.05 117.237 4.21667 115.47 4.45C116.037 2.75 116.837 1.9 117.87 1.9H120.02C120.187 1.9 120.37 1.9 120.57 1.9C120.803 1.9 121.053 1.88333 121.32 1.85H122.22C133.12 1.85 138.57 3.46667 138.57 6.7C138.57 9.6 135.12 12.7833 128.22 16.25C129.053 16.3833 130.087 16.5833 131.32 16.85C132.587 17.0833 134.037 17.3833 135.67 17.75C139.27 18.65 141.07 19.9167 141.07 21.55C141.07 23.0833 138.97 25.2833 134.77 28.15C133.07 29.2833 131.487 30.2667 130.02 31.1C128.587 31.9333 127.253 32.5833 126.02 33.05C125.887 33.0833 125.77 33.1 125.67 33.1C125.603 33.1333 125.537 33.15 125.47 33.15C125.103 33.15 124.92 32.9667 124.92 32.6C124.92 32.1667 125.37 31.7333 126.27 31.3L128.17 30.55C134.703 27.8167 137.97 25.2667 137.97 22.9C137.97 21.2667 136.437 20 133.37 19.1C131.237 18.4667 129.037 18.15 126.77 18.15C124.837 18.15 123.453 18.3667 122.62 18.8C122.12 20.8333 121.87 23.4 121.87 26.5C121.87 30.6 122.453 32.8833 123.62 33.35C123.053 34.4167 122.487 34.95 121.92 34.95ZM142.909 29.05C141.943 29.05 141.459 28.45 141.459 27.25C141.459 25.6833 142.276 23.7333 143.909 21.4C144.609 20.3667 145.326 19.45 146.059 18.65C146.793 17.85 147.526 17.1333 148.259 16.5C149.226 15.7 150.109 15.3 150.909 15.3C151.409 15.3 151.826 15.5167 152.159 15.95C152.493 16.35 152.659 16.8 152.659 17.3C152.659 17.5333 152.593 17.65 152.459 17.65C152.459 17.65 152.343 17.5333 152.109 17.3C151.876 17.0667 151.493 16.95 150.959 16.95C150.193 16.95 149.526 17.1333 148.959 17.5C147.493 18.5333 146.143 19.85 144.909 21.45C143.476 23.3167 142.759 25 142.759 26.5C142.759 27.2667 143.026 27.65 143.559 27.65C144.426 27.65 145.793 26.3667 147.659 23.8C148.459 22.6667 149.109 21.6667 149.609 20.8C150.143 19.9 150.526 19.1333 150.759 18.5C150.993 18.2667 151.259 18.15 151.559 18.15C151.726 18.15 151.826 18.2167 151.859 18.35C151.626 18.7833 151.509 19.5667 151.509 20.7C151.509 22.1333 151.676 23.4167 152.009 24.55C152.509 26.3167 153.226 27.2 154.159 27.2C154.759 27.2 155.393 26.6833 156.059 25.65L157.109 24.05C157.143 24.0833 157.159 24.1167 157.159 24.15C157.159 24.6833 156.659 25.5833 155.659 26.85C154.659 28.0833 153.893 28.7 153.359 28.7C152.493 28.7 151.693 27.7333 150.959 25.8C150.393 24.2 150.109 22.85 150.109 21.75C146.843 26.6167 144.443 29.05 142.909 29.05ZM159.276 30.55C157.143 30.55 156.076 28.9333 156.076 25.7C156.076 24.1 156.31 22.6 156.776 21.2C156.943 20.7667 157.126 20.3 157.326 19.8C157.56 19.2667 157.843 18.6833 158.176 18.05C159.01 16.4167 159.626 15.6 160.026 15.6C160.593 15.6 160.993 15.8167 161.226 16.25C161.293 16.05 161.443 15.95 161.676 15.95C162.143 15.95 162.593 16.1667 163.026 16.6C163.46 17.0333 163.676 17.4833 163.676 17.95C163.676 18.45 163.476 18.95 163.076 19.45C162.676 19.9167 162.226 20.15 161.726 20.15C161.66 20.15 161.593 20.1167 161.526 20.05C162.226 18.95 162.576 18.1333 162.576 17.6C162.576 17 162.36 16.7 161.926 16.7C160.793 16.7 159.643 18.2833 158.476 21.45C157.71 23.5833 157.326 25.3 157.326 26.6C157.326 28.7 158.143 29.75 159.776 29.75C161.643 29.75 163.526 28.5 165.426 26C166.06 25.1667 166.41 24.7333 166.476 24.7C166.576 24.7 166.626 24.7667 166.626 24.9C166.626 24.9333 166.593 25.05 166.526 25.25C164.693 28.7833 162.276 30.55 159.276 30.55ZM167.844 32.4C167.178 31.7333 166.844 29.9167 166.844 26.95C166.844 24.7167 167.044 21.3833 167.444 16.95C167.844 12.4833 168.044 9.15 168.044 6.95C168.044 3.61666 167.394 1.95 166.094 1.95C165.794 1.95 165.494 2 165.194 2.1C165.161 2.13333 165.111 2.15 165.044 2.15C164.911 2.15 164.844 2.06666 164.844 1.9C164.844 1.66667 165.428 1.35 166.594 0.949998C167.694 0.516665 168.461 0.299998 168.894 0.299998C169.661 0.299998 170.044 0.983331 170.044 2.35C170.044 3.08333 169.994 4.06667 169.894 5.3C169.828 6.53333 169.711 8 169.544 9.7C168.744 17.8333 168.344 22.9667 168.344 25.1C168.344 25.8667 168.344 26.4833 168.344 26.95C168.378 27.3833 168.411 27.6667 168.444 27.8C168.744 27.2 169.444 25.95 170.544 24.05C170.011 22.2167 169.744 20.9667 169.744 20.3C169.744 19.2333 170.411 18.2833 171.744 17.45C171.844 17.3833 172.161 17.1833 172.694 16.85C173.261 16.5167 174.028 16.0667 174.994 15.5C175.028 15.3667 175.211 15.1167 175.544 14.75C176.278 14.2167 176.961 13.95 177.594 13.95C178.194 13.95 178.494 14.3667 178.494 15.2C178.494 15.7333 178.328 16.1667 177.994 16.5L174.644 19.85C174.011 20.4833 173.444 21.1167 172.944 21.75C172.444 22.35 172.011 22.9167 171.644 23.45C173.378 26.6833 174.928 28.3 176.294 28.3C177.061 28.3 177.844 27.85 178.644 26.95L179.844 25.55C179.944 25.55 179.994 25.6167 179.994 25.75C179.994 26.3167 179.361 27.1833 178.094 28.35C176.861 29.4833 175.944 30.05 175.344 30.05C174.244 30.05 173.294 29.4167 172.494 28.15L170.894 24.8C169.861 27.2 169.344 29 169.344 30.2C169.344 30.3 169.361 30.4333 169.394 30.6C169.428 30.8 169.444 30.95 169.444 31.05C169.444 31.55 168.911 32 167.844 32.4ZM171.244 22.7C172.611 21.2 174.594 18.9667 177.194 16C173.128 17.9667 171.094 19.85 171.094 21.65C171.094 21.9833 171.144 22.3333 171.244 22.7ZM183.746 24.6C183.58 24.6 183.43 24.4833 183.296 24.25C183.296 22.15 183.646 19.3333 184.346 15.8L185.996 7.35C185.63 7.05 185.446 6.65 185.446 6.15C185.446 5.65 185.63 5.13333 185.996 4.6C186.363 4.03333 186.78 3.75 187.246 3.75C187.713 3.75 187.946 4.25 187.946 5.25C187.946 7.08333 187.546 9.53333 186.746 12.6L184.796 19.9C184.596 20.6333 184.396 21.85 184.196 23.55C184.096 24.25 183.946 24.6 183.746 24.6ZM182.646 31.3C182.413 31.2333 182.13 31.0333 181.796 30.7C181.496 30.3667 181.346 30.1 181.346 29.9C181.346 29.5333 181.546 29.1667 181.946 28.8C182.38 28.4333 182.78 28.2833 183.146 28.35C183.413 28.25 183.613 28.2 183.746 28.2C184.013 28.2 184.146 28.3333 184.146 28.6C184.146 28.7667 184.08 29.0167 183.946 29.35C183.813 29.65 183.746 29.8667 183.746 30C183.746 30.4667 183.38 30.9 182.646 31.3Z" fill="#6965FD"/>
</g>
<defs>
<filter id="filter0_d_1085_794" x="0.367188" y="0.300049" width="191.578" height="42.6499" filterUnits="userSpaceOnUse" color-interpolation-filters="sRGB">
<feFlood flood-opacity="0" result="BackgroundImageFix"/>
<feColorMatrix in="SourceAlpha" type="matrix" values="0 0 0 0 0 0 0 0 0 0 0 0 0 0 0 0 0 0 127 0" result="hardAlpha"/>
<feOffset dy="4"/>
<feGaussianBlur stdDeviation="2"/>
<feComposite in2="hardAlpha" operator="out"/>
<feColorMatrix type="matrix" values="0 0 0 0 0 0 0 0 0 0 0 0 0 0 0 0 0 0 0.25 0"/>
<feBlend mode="normal" in2="BackgroundImageFix" result="effect1_dropShadow_1085_794"/>
<feBlend mode="normal" in="SourceGraphic" in2="effect1_dropShadow_1085_794" result="shape"/>
</filter>
</defs>
</svg>
